<svg id="Capa_1" enable-background="new 0 0 512 512" height="512" viewBox="0 0 512 512" width="512" xmlns="http://www.w3.org/2000/svg" xmlns:xlink="http://www.w3.org/1999/xlink"><linearGradient id="SVGID_1_" gradientUnits="userSpaceOnUse" x1="256" x2="256" y1="497" y2="105.076"><stop offset="0" stop-color="#ffbef9"/><stop offset="1" stop-color="#fff1ff"/></linearGradient><linearGradient id="SVGID_2_" gradientUnits="userSpaceOnUse" x1="256" x2="256" y1="512" y2="0"><stop offset="0" stop-color="#a93aff"/><stop offset="1" stop-color="#ff81ff"/></linearGradient><g><g><g><path d="m256 105.076c-16.816 0-30 13.184-30 30s13.184 30 30 30 30-13.184 30-30-13.184-30-30-30zm-151 75h-60c-8.291 0-15 6.709-15 15v286.924c0 8.291 6.709 15 15 15h60c8.291 0 15-6.709 15-15v-286.924c0-8.291-6.709-15-15-15zm362 0h-60c-8.291 0-15 6.709-15 15v286.924c0 8.291 6.709 15 15 15h60c8.291 0 15-6.709 15-15v-286.924c0-8.291-6.709-15-15-15z" fill="url(#SVGID_1_)"/></g></g><g><g><path d="m196 405.075c0 8.291 6.709 15 15 15h30v15c0 8.291 6.709 15 15 15s15-6.709 15-15v-15c24.814 0 45-20.186 45-45 0-11.514-4.336-22.031-11.484-30 7.148-7.969 11.484-18.486 11.484-30 0-24.814-20.186-45-45-45v-15c0-8.291-6.709-15-15-15s-15 6.709-15 15v15h-30c-8.291 0-15 6.709-15 15s6.709 15 15 15v90c-8.291 0-15 6.709-15 15zm45-104.999h30c8.262 0 15 6.724 15 15s-6.738 15-15 15h-30zm0 59.999h30c8.262 0 15 6.724 15 15s-6.738 15-15 15h-30zm262.599-238.5-241-120c-4.199-2.1-9-2.1-13.198 0l-241 120c-5.101 2.701-8.401 7.8-8.401 13.501v60c0 8.399 6.599 15 15 15h482c8.401 0 15-6.601 15-15v-60c0-5.701-3.3-10.8-8.401-13.501zm-247.599 28.501c-8.401 0-15-6.601-15-15 0-8.401 6.599-15 15-15s15 6.599 15 15c0 8.399-6.599 15-15 15zm241 331.924h-482c-8.291 0-15 6.709-15 15s6.709 15 15 15h482c8.291 0 15-6.709 15-15s-6.709-15-15-15z" fill="url(#SVGID_2_)"/></g></g></g></svg>