<?xml version="1.0" encoding="UTF-8" standalone="no"?>
<!DOCTYPE svg PUBLIC "-//W3C//DTD SVG 1.1//EN" "http://www.w3.org/Graphics/SVG/1.1/DTD/svg11.dtd">
<svg width="100%" height="100%" viewBox="0 0 371 58" version="1.1" xmlns="http://www.w3.org/2000/svg" xmlns:xlink="http://www.w3.org/1999/xlink" xml:space="preserve" xmlns:serif="http://www.serif.com/" style="fill-rule:evenodd;clip-rule:evenodd;stroke-linejoin:round;stroke-miterlimit:2;">
    <g id="Plan-de-travail1" serif:id="Plan de travail1" transform="matrix(1.00542,0,0,1,0,0)">
        <rect x="0" y="0" width="368.96" height="57.6" style="fill:none;"/>
        <clipPath id="_clip1">
            <rect x="0" y="0" width="368.96" height="57.6"/>
        </clipPath>
        <g clip-path="url(#_clip1)">
            <g transform="matrix(1.02303,0,0,1.02857,-118.18,-67.2274)">
                <path d="M115.52,65.36L140,65.36C149.08,65.36 156.72,68.16 162.09,73.06C167.46,77.96 170.56,84.96 170.56,93.36C170.56,101.76 167.46,108.76 162.09,113.66C156.72,118.56 149.09,121.36 140,121.36L115.52,121.36L130.25,112.56M130.25,112.56L139.52,112.56C145.76,112.56 150.9,110.66 154.52,107.31C158.14,103.96 160.12,99.16 160.12,93.31C160.12,87.46 158.12,82.71 154.52,79.31C150.92,75.91 145.8,74.06 139.52,74.06L130.31,74.06" style="fill:white;fill-rule:nonzero;"/>
            </g>
            <g transform="matrix(1.02303,0,0,1.02857,-120.725,-67.2274)">
                <path d="M223.6,112.64L223.6,121.36L181.6,121.36L181.6,65.36L222.48,65.36L222.48,74.08L192,74.08L192,88.64L219,88.64L219,97.2L192,97.2L192,112.64L223.6,112.64Z" style="fill:white;fill-rule:nonzero;"/>
            </g>
            <g transform="matrix(0.994781,0,0,1.00017,-115.03,-64.6212)">
                <path d="M230.48,115.44L232.28,111.44L234.08,107.44C236.586,109.382 239.407,110.881 242.42,111.87C245.684,112.992 249.109,113.577 252.56,113.6C256.92,113.6 260.02,112.82 262.03,111.52C263.858,110.431 264.976,108.448 264.96,106.32C264.96,100.32 256.64,99.24 248.32,97.11C240,94.98 231.68,91.76 231.68,81.36C231.615,76.806 233.654,72.468 237.2,69.61C240.92,66.61 246.56,64.61 254.2,64.61C257.574,64.613 260.934,65.043 264.2,65.89C267.255,66.648 270.168,67.89 272.83,69.57L271.19,73.57L269.55,77.57C267.11,76.136 264.495,75.023 261.77,74.26C259.278,73.553 256.701,73.186 254.11,73.17C249.79,73.17 246.75,74.01 244.79,75.38C242.994,76.588 241.94,78.637 242,80.8C242,86.8 250.3,87.8 258.6,89.92C266.9,92.04 275.2,95.24 275.2,105.52C275.251,110.06 273.196,114.377 269.64,117.2C265.9,120.2 260.24,122.2 252.56,122.2C248.303,122.184 244.071,121.544 240,120.3C236.533,119.336 233.295,117.683 230.48,115.44Z" style="fill:white;fill-rule:nonzero;"/>
            </g>
            <g transform="matrix(1.02061,0,0,1.02857,-123.087,-66.4149)">
                <path d="M296.39,120.57L286,120.57L286,64.57L296.4,64.57M322,64.57L333.68,64.57L321.86,77.09L310.1,89.61L322.58,105.09L335.07,120.57L322.91,120.57L313,108.85L303.12,97.13L302.86,84.46" style="fill:white;fill-rule:nonzero;"/>
            </g>
            <g transform="matrix(0.993799,0,0,0.999187,-114.804,-64.5006)">
                <path d="M337.84,93.36C337.724,85.604 340.829,78.137 346.41,72.75C352.272,67.329 360.017,64.391 368,64.56C376.68,64.56 384.22,67.56 389.59,72.72C395.074,78.186 398.16,85.617 398.16,93.36C398.16,101.103 395.074,108.534 389.59,114C384.22,119.12 376.68,122.16 368,122.16C360.021,122.337 352.277,119.41 346.41,114C340.821,108.606 337.715,101.126 337.84,93.36ZM387.68,93.36C387.354,83.127 378.848,74.887 368.61,74.887C358.143,74.887 349.53,83.5 349.53,93.967C349.53,104.434 358.143,113.047 368.61,113.047C373.653,113.047 378.496,111.048 382.07,107.49C385.763,103.728 387.787,98.631 387.68,93.36Z" style="fill:white;fill-rule:nonzero;"/>
            </g>
            <g transform="matrix(1.02303,0,0,1.02857,-126.763,-67.2274)">
                <rect x="409.2" y="65.36" width="10.4" height="56" style="fill:white;fill-rule:nonzero;"/>
            </g>
            <g transform="matrix(1.02303,0,0,1.02857,-126.676,-67.2274)">
                <path d="M484.48,65.36L484.48,121.36L475.92,121.36L445,83.44L445,121.36L434.72,121.36L434.72,65.36L443.28,65.36L474.16,103.36L474.16,65.36L484.48,65.36Z" style="fill:white;fill-rule:nonzero;"/>
            </g>
        </g>
    </g>
</svg>
